<svg width="891" height="852" viewBox="0 0 891 852" fill="none" xmlns="http://www.w3.org/2000/svg">
<path d="M377.319 729.925C339.696 746.085 301.219 754.929 259.225 749.755C212.418 743.985 169.734 707.038 144.5 669.06C135.124 654.953 127.353 639.015 127.127 622.082C126.62 582.964 163.165 576.204 194.839 580.469C212.694 582.864 229.402 589.88 245.922 596.83C273.349 608.378 304.931 612.876 329.944 629.731C338.339 635.405 344.825 642.456 354.404 646.357C369.305 652.431 386.007 654.668 401.258 660.086C414.281 664.738 429.027 672.828 429.946 686.621C430.871 700.767 416.701 710.746 404.1 717.224C395.183 721.836 386.283 726.091 377.319 729.925Z" fill="url(#paint0_linear)"/>
<path d="M202.723 236.324C259.746 139.226 387.773 93.3765 495.805 121.432C547.899 134.969 592.928 167.299 634.724 201.183C671.567 231.048 707.536 263.505 733.96 303.264C752.002 330.402 765.804 363.444 776.052 394.463C791.378 440.91 784.235 502.511 722.87 502.038C708.472 501.928 695.739 497.585 682.044 493.952C670.965 491.005 660.484 493.89 649.113 492.84C620.491 490.203 592.519 481.555 565.914 471.023C511.695 449.536 461.429 418.817 405.915 400.51C360.423 385.532 312.485 379.394 264.687 382.429C244.522 383.712 223.413 386.507 204.789 378.669C158.883 359.329 174.959 298.051 189.358 263.23C193.17 253.956 197.636 244.965 202.723 236.324Z" fill="url(#paint1_linear)"/>
<path d="M698.327 218.067C709.328 226.796 751.815 249.815 750.633 219.625C750.329 212.105 746.448 205.037 741.454 199.841C735.739 193.876 729.512 190.957 724.891 183.875C719.245 175.327 712.933 167.36 706.037 160.075C691.921 144.897 675.695 131.081 656.749 125.69C643.461 121.915 621.55 124.513 616.468 141.559C609.063 166.373 647.779 168.304 660.074 176.369C671.742 184 678.977 197.949 688.533 208.787C691.552 212.204 694.83 215.31 698.327 218.067Z" fill="url(#paint2_linear)"/>
<path d="M504.326 201.136C527.172 212.653 544.942 230.965 566.021 245.271C601.114 269.085 647.237 271.415 686.715 286.992C726.97 302.887 758.329 329.626 774.358 370.068C795.063 422.268 800.839 485.576 789.785 541.352C777.608 602.749 742.38 645.304 688.791 675.648C635.234 705.973 574.785 722.44 513.853 729C507.973 729.639 502.095 730.159 496.188 730.583C363.502 740.018 183.77 704.83 129.271 565.187C128.772 563.911 128.29 562.634 127.805 561.339C122.112 545.756 118.304 529.548 116.464 513.061C109.794 454.62 115.831 389.24 132.798 332.938C144.207 295.035 171.933 261.805 201.847 237.466C243.875 203.271 297.128 191.769 350.404 184.518C389.855 179.15 434.363 175.224 472.831 187.937C483.644 191.544 494.172 195.956 504.326 201.136Z" fill="url(#paint3_linear)"/>
<path d="M430.175 414.624C431.776 418.434 436.162 420.225 439.972 418.624L455.662 412.032C463.649 408.676 472.309 407.191 480.952 407.793C483.529 407.973 486.197 407.485 488.706 406.228C495.353 402.897 498.561 395.005 496.123 387.981C493.262 379.734 484.098 375.735 476.177 379.063C474.032 379.964 472.206 381.307 470.763 382.942C464.971 389.503 457.931 394.845 449.862 398.236L434.175 404.827C430.365 406.427 428.574 410.814 430.175 414.624Z" fill="#FB4C47"/>
<path d="M355.515 498.692C352.352 497.4 348.741 498.918 347.449 502.081L342.13 515.107C339.423 521.739 335.228 527.669 329.824 532.37C328.212 533.771 326.938 535.616 326.206 537.818C324.267 543.651 327.005 550.14 332.537 552.822C339.031 555.97 346.726 552.951 349.411 546.375C350.139 544.594 350.42 542.742 350.309 540.942C349.859 533.72 350.852 526.482 353.587 519.783L358.905 506.758C360.196 503.595 358.678 499.983 355.515 498.692Z" fill="#C63F3B"/>
<path d="M403.488 381.204C406.798 382.556 410.577 380.968 411.929 377.658L417.494 364.027C420.328 357.087 424.717 350.882 430.372 345.963C432.058 344.496 433.392 342.565 434.158 340.262C436.187 334.157 433.321 327.367 427.533 324.561C420.738 321.267 412.684 324.426 409.875 331.307C409.114 333.171 408.819 335.109 408.936 336.992C409.406 344.55 408.368 352.124 405.506 359.135L399.941 372.764C398.59 376.074 400.178 379.853 403.488 381.204Z" fill="#C63F3B"/>
<path d="M401.948 483.773C398.138 485.374 396.346 489.76 397.947 493.571L404.539 509.261C407.895 517.248 409.38 525.908 408.778 534.551C408.599 537.127 409.087 539.795 410.343 542.304C413.674 548.952 421.566 552.159 428.59 549.722C436.837 546.86 440.836 537.696 437.508 529.776C436.607 527.63 435.264 525.805 433.629 524.362C427.068 518.57 421.726 511.53 418.336 503.461L411.745 487.774C410.144 483.964 405.758 482.173 401.948 483.773Z" fill="#FB4C47"/>
<path d="M433.627 524.363C427.066 518.57 421.723 511.531 418.333 503.462L411.742 487.774C410.141 483.964 405.755 482.173 401.944 483.774C398.134 485.375 396.343 489.761 397.944 493.571L404.535 509.259C407.926 517.328 413.268 524.367 419.829 530.16C421.464 531.603 422.807 533.428 423.708 535.573C425.852 540.676 424.951 546.293 421.837 550.41C424.059 550.698 426.367 550.493 428.588 549.723C436.834 546.861 440.834 537.697 437.506 529.776C436.605 527.631 435.262 525.806 433.627 524.363Z" fill="#C63F3B"/>
<path d="M318.029 428.223C330.476 422.994 336.326 408.665 331.097 396.218C325.867 383.772 311.538 377.921 299.092 383.151C286.645 388.38 280.795 402.709 286.024 415.156C291.254 427.602 305.583 433.453 318.029 428.223Z" fill="#FF8F8C"/>
<path d="M299.097 383.15C296.69 384.161 294.533 385.516 292.652 387.129C302.947 386.232 313.086 391.976 317.304 402.015C321.522 412.054 318.528 423.316 310.682 430.041C313.15 429.826 315.627 429.234 318.034 428.223C330.481 422.993 336.331 408.664 331.102 396.218C325.872 383.771 311.543 377.921 299.097 383.15Z" fill="#FB4C47"/>
<path d="M412.405 508.668C453.046 491.593 472.149 444.805 455.074 404.164C437.999 363.524 391.211 344.42 350.57 361.496C309.929 378.571 290.826 425.359 307.901 466C324.977 506.64 371.765 525.744 412.405 508.668Z" fill="#FB4C47"/>
<path d="M350.57 361.495C348.244 362.473 345.991 363.552 343.808 364.718C382.675 352.481 425.18 371.647 441.277 409.961C457.375 448.274 441.315 492.047 405.371 511.242C407.731 510.498 410.079 509.645 412.406 508.668C453.047 491.592 472.15 444.804 455.075 404.163C438 363.523 391.211 344.42 350.57 361.495Z" fill="#C63F3B"/>
<path d="M404.796 413.281C413.051 409.812 416.932 400.309 413.463 392.053C409.995 383.798 400.491 379.918 392.236 383.386C383.98 386.855 380.1 396.359 383.569 404.614C387.037 412.869 396.541 416.749 404.796 413.281Z" fill="#C63F3B"/>
<path d="M392.234 383.387C389.745 384.432 387.657 386.03 386.045 387.974C391.874 388.458 397.242 392.085 399.664 397.851C402.087 403.617 400.921 409.989 397.186 414.491C399.703 414.7 402.305 414.327 404.795 413.281C413.05 409.813 416.93 400.309 413.462 392.054C409.993 383.798 400.49 379.918 392.234 383.387Z" fill="white"/>
<path d="M371.514 484.998C377.103 482.651 379.729 476.217 377.381 470.629C375.033 465.041 368.6 462.414 363.012 464.762C357.423 467.11 354.797 473.543 357.145 479.131C359.493 484.72 365.926 487.346 371.514 484.998Z" fill="white"/>
<path d="M460.278 482.421C467.898 479.22 471.48 470.447 468.278 462.827C465.076 455.206 456.304 451.624 448.683 454.826C441.063 458.028 437.481 466.801 440.683 474.421C443.885 482.041 452.657 485.623 460.278 482.421Z" fill="#FB4C47"/>
<path d="M448.683 454.827C446.169 455.883 444.097 457.548 442.561 459.576C447.686 460.229 452.334 463.518 454.48 468.625C456.625 473.731 455.721 479.352 452.601 483.471C455.124 483.793 457.763 483.479 460.277 482.423C467.898 479.221 471.479 470.448 468.278 462.828C465.076 455.208 456.303 451.625 448.683 454.827Z" fill="#C63F3B"/>
<path d="M332.791 455.54C334.392 459.35 332.602 463.736 328.791 465.337L313.102 471.929C305.114 475.285 297.993 480.432 292.373 487.026C290.698 488.992 288.482 490.556 285.828 491.468C278.797 493.885 270.915 490.652 267.604 483.994C263.717 476.179 267.275 466.834 275.195 463.506C277.341 462.605 279.578 462.241 281.755 462.355C290.495 462.81 299.238 461.521 307.307 458.131L322.995 451.54C326.804 449.939 331.191 451.73 332.791 455.54Z" fill="#C63F3B"/>
<path d="M361.035 386.389C364.845 384.788 366.637 380.402 365.036 376.591L358.443 360.902C355.088 352.914 353.603 344.254 354.205 335.612C354.384 333.035 353.896 330.367 352.639 327.858C349.309 321.211 341.417 318.003 334.392 320.44C326.146 323.302 322.146 332.466 325.474 340.387C326.376 342.532 327.719 344.357 329.354 345.8C335.915 351.593 341.257 358.632 344.647 366.701L351.239 382.389C352.839 386.199 357.225 387.99 361.035 386.389Z" fill="#FB4C47"/>
<path d="M352.64 327.858C349.31 321.21 341.418 318.003 334.393 320.44C331.459 321.458 329.067 323.276 327.347 325.55C332.154 326.174 336.565 329.11 338.843 333.655C340.099 336.164 340.588 338.832 340.408 341.409C339.806 350.051 341.291 358.712 344.647 366.699L351.239 382.389C352.839 386.198 357.226 387.99 361.036 386.389C364.847 384.788 366.637 380.402 365.036 376.591L358.444 360.902C355.088 352.914 353.604 344.254 354.206 335.612C354.385 333.035 353.898 330.367 352.64 327.858Z" fill="#C63F3B"/>
<path d="M477.738 379.452C475.578 380.313 473.729 381.621 472.257 383.229C471.997 383.513 471.731 383.792 471.465 384.071C476.903 384.84 481.756 388.584 483.612 394.269C485.2 399.131 484.107 404.354 481.087 408.184C481.385 408.205 481.684 408.223 481.982 408.249C484.554 408.475 487.229 408.037 489.759 406.827C496.463 403.621 499.813 395.793 497.506 388.729C494.798 380.436 485.714 376.271 477.738 379.452Z" fill="#C63F3B"/>
<g opacity="0.63">
<path d="M536.882 554.024C538.098 555.741 540.475 556.147 542.192 554.931L549.261 549.924C552.86 547.375 557 545.682 561.361 545.028C562.661 544.833 563.933 544.296 565.041 543.394C567.977 541.006 568.7 536.73 566.714 533.509C564.382 529.727 559.387 528.75 555.818 531.278C554.852 531.962 554.093 532.831 553.556 533.803C551.402 537.702 548.493 541.134 544.857 543.709L537.789 548.715C536.072 549.93 535.666 552.308 536.882 554.024Z" fill="#FFC700"/>
<path d="M503.189 594.854C501.475 594.561 499.848 595.714 499.555 597.428L498.349 604.488C497.735 608.082 496.305 611.491 494.138 614.424C493.492 615.298 493.062 616.355 492.942 617.53C492.622 620.642 494.698 623.565 497.743 624.287C501.317 625.135 504.808 622.786 505.417 619.222C505.582 618.257 505.517 617.305 505.263 616.423C504.243 612.884 503.938 609.178 504.558 605.547L505.764 598.488C506.056 596.774 504.903 595.147 503.189 594.854Z" fill="#D09700"/>
<path d="M514.068 531.179C515.862 531.485 517.565 530.279 517.871 528.485L519.133 521.098C519.775 517.337 521.272 513.769 523.539 510.701C524.215 509.786 524.665 508.679 524.791 507.45C525.126 504.193 522.953 501.135 519.767 500.379C516.027 499.492 512.374 501.95 511.737 505.68C511.564 506.69 511.632 507.685 511.897 508.608C512.965 512.312 513.284 516.19 512.636 519.989L511.374 527.376C511.068 529.17 512.274 530.872 514.068 531.179Z" fill="#D09700"/>
<path d="M524.613 582.32C522.897 583.536 522.49 585.913 523.706 587.63L528.713 594.699C531.262 598.298 532.955 602.438 533.61 606.799C533.805 608.099 534.342 609.371 535.243 610.479C537.632 613.415 541.907 614.138 545.129 612.152C548.911 609.82 549.888 604.825 547.36 601.256C546.675 600.29 545.807 599.531 544.835 598.994C540.936 596.84 537.504 593.931 534.929 590.295L529.923 583.227C528.707 581.51 526.33 581.104 524.613 582.32Z" fill="#FFC700"/>
<path d="M544.835 598.992C540.935 596.838 537.504 593.929 534.929 590.293L529.923 583.225C528.707 581.508 526.329 581.102 524.613 582.318C522.896 583.534 522.49 585.911 523.706 587.628L528.712 594.697C531.287 598.332 534.718 601.241 538.618 603.396C539.589 603.932 540.458 604.691 541.143 605.658C542.771 607.957 542.943 610.847 541.85 613.237C542.986 613.135 544.11 612.779 545.129 612.15C548.911 609.819 549.887 604.824 547.36 601.255C546.675 600.288 545.806 599.529 544.835 598.992Z" fill="#D09700"/>
<path d="M476.789 563.973C482.397 560.001 483.723 552.236 479.751 546.628C475.779 541.02 468.014 539.693 462.406 543.665C456.798 547.637 455.471 555.403 459.443 561.011C463.415 566.619 471.181 567.945 476.789 563.973Z" fill="#D09700"/>
<path d="M462.406 543.665C461.322 544.433 460.4 545.344 459.642 546.353C464.659 544.772 470.331 546.507 473.535 551.03C476.739 555.554 476.493 561.48 473.336 565.688C474.539 565.309 475.705 564.741 476.789 563.973C482.397 560.001 483.724 552.235 479.752 546.627C475.78 541.019 468.014 539.693 462.406 543.665Z" fill="#FFC700"/>
<path d="M532.556 593.537C550.867 580.568 555.198 555.21 542.229 536.899C529.26 518.588 503.902 514.257 485.591 527.226C467.28 540.195 462.949 565.553 475.918 583.864C488.887 602.175 514.244 606.506 532.556 593.537Z" fill="#FFC700"/>
<path d="M485.597 527.225C484.549 527.968 483.549 528.753 482.593 529.573C500.556 519.204 523.793 524.039 536.019 541.301C548.245 558.564 545.094 582.088 529.351 595.592C530.441 594.962 531.514 594.279 532.562 593.537C550.874 580.567 555.205 555.21 542.236 536.898C529.267 518.587 503.909 514.256 485.597 527.225Z" fill="#D09700"/>
<path d="M513.679 549.759C515.033 548.8 515.353 546.925 514.394 545.57C513.435 544.216 511.56 543.896 510.206 544.855C508.851 545.814 508.531 547.689 509.49 549.044C510.449 550.398 512.325 550.718 513.679 549.759Z" fill="white"/>
<path d="M509.622 586.287C512.14 584.503 512.736 581.016 510.953 578.498C509.169 575.98 505.682 575.384 503.164 577.167C500.646 578.951 500.05 582.438 501.834 584.956C503.617 587.474 507.104 588.07 509.622 586.287Z" fill="white"/>
<path d="M491.987 562.846C495.842 560.116 496.754 554.777 494.023 550.922C491.293 547.067 485.954 546.155 482.099 548.885C478.243 551.616 477.332 556.954 480.062 560.81C482.793 564.665 488.131 565.577 491.987 562.846Z" fill="white"/>
<path d="M553.446 575.213C556.88 572.781 557.692 568.026 555.26 564.593C552.828 561.159 548.073 560.347 544.64 562.779C541.206 565.211 540.394 569.965 542.826 573.399C545.258 576.832 550.013 577.644 553.446 575.213Z" fill="#FFC700"/>
<path d="M544.641 562.779C543.509 563.581 542.663 564.637 542.123 565.815C544.742 565.574 547.415 566.695 549.045 568.996C550.674 571.297 550.845 574.19 549.749 576.581C551.038 576.463 552.315 576.016 553.448 575.213C556.882 572.781 557.693 568.027 555.262 564.593C552.83 561.16 548.075 560.347 544.641 562.779Z" fill="#D09700"/>
<path d="M487.137 575.919C488.353 577.636 487.947 580.013 486.23 581.229L479.161 586.236C475.562 588.785 472.591 592.128 470.526 596.025C469.911 597.186 468.982 598.208 467.764 598.954C464.536 600.931 460.263 600.194 457.883 597.251C455.09 593.796 455.826 588.76 459.395 586.232C460.362 585.548 461.433 585.12 462.528 584.936C466.921 584.198 471.124 582.593 474.759 580.018L481.828 575.012C483.544 573.796 485.921 574.202 487.137 575.919Z" fill="#D09700"/>
<path d="M493.539 538.443C495.255 537.227 495.662 534.85 494.446 533.133L489.439 526.064C486.89 522.465 485.197 518.325 484.542 513.964C484.347 512.664 483.81 511.392 482.909 510.284C480.521 507.348 476.245 506.625 473.023 508.611C469.241 510.943 468.265 515.938 470.792 519.507C471.477 520.473 472.346 521.232 473.317 521.769C477.217 523.923 480.648 526.832 483.223 530.468L488.229 537.536C489.445 539.253 491.822 539.659 493.539 538.443Z" fill="#FFC700"/>
<path d="M482.907 510.284C480.518 507.348 476.243 506.625 473.021 508.611C471.675 509.441 470.687 510.608 470.083 511.928C472.541 511.707 475.057 512.68 476.69 514.687C477.591 515.795 478.128 517.067 478.323 518.367C478.978 522.729 480.671 526.868 483.22 530.467L488.227 537.536C489.442 539.253 491.82 539.659 493.537 538.443C495.253 537.227 495.659 534.85 494.444 533.133L489.437 526.064C486.888 522.465 485.195 518.326 484.54 513.964C484.345 512.664 483.808 511.392 482.907 510.284Z" fill="#D09700"/>
</g>
<path d="M588.172 470.391C585.815 469.841 583.458 471.305 582.907 473.662L580.64 483.369C579.486 488.31 577.213 492.927 573.957 496.819C572.986 497.979 572.3 499.412 572.033 501.034C571.328 505.332 573.968 509.566 578.137 510.824C583.031 512.302 588.078 509.331 589.223 504.431C589.533 503.104 589.523 501.776 589.244 500.53C588.124 495.528 588.01 490.353 589.176 485.361L591.443 475.656C591.994 473.299 590.529 470.942 588.172 470.391Z" fill="#1DB776"/>
<path d="M573.973 406.088C575.672 405.031 576.194 402.797 575.138 401.097L570.789 394.097C568.575 390.534 567.205 386.506 566.833 382.327C566.722 381.081 566.286 379.842 565.493 378.738C563.393 375.814 559.375 374.882 556.201 376.583C552.476 378.58 551.262 383.268 553.458 386.802C554.053 387.759 554.834 388.529 555.726 389.095C559.305 391.364 562.397 394.323 564.633 397.923L568.982 404.922C570.039 406.622 572.273 407.144 573.973 406.088Z" fill="#128E5A"/>
<path d="M613.196 469.223C611.417 470.328 610.871 472.666 611.976 474.445L616.527 481.77C618.844 485.499 620.277 489.714 620.666 494.087C620.782 495.391 621.239 496.687 622.069 497.842C624.266 500.903 628.471 501.878 631.792 500.098C635.69 498.007 636.96 493.102 634.663 489.405C634.04 488.403 633.222 487.597 632.289 487.005C628.544 484.63 625.309 481.534 622.968 477.767L618.418 470.443C617.312 468.664 614.974 468.118 613.196 469.223Z" fill="#128E5A"/>
<path d="M565.083 433.233C565.633 430.875 564.169 428.518 561.812 427.968L552.105 425.7C547.164 424.546 542.547 422.273 538.655 419.017C537.495 418.046 536.062 417.36 534.44 417.094C530.143 416.388 525.909 419.028 524.65 423.197C523.172 428.091 526.143 433.138 531.043 434.283C532.371 434.593 533.698 434.583 534.944 434.304C539.946 433.184 545.121 433.07 550.113 434.236L559.818 436.503C562.175 437.054 564.532 435.59 565.083 433.233Z" fill="#1DB776"/>
<path d="M534.946 434.304C539.948 433.184 545.123 433.071 550.115 434.237L559.82 436.504C562.177 437.054 564.534 435.59 565.085 433.233C565.635 430.875 564.171 428.518 561.814 427.968L552.109 425.701C547.117 424.535 541.942 424.648 536.94 425.768C535.693 426.048 534.366 426.057 533.039 425.747C529.882 425.01 527.528 422.652 526.646 419.759C525.746 420.714 525.05 421.879 524.652 423.197C523.174 428.092 526.145 433.138 531.045 434.283C532.372 434.593 533.699 434.584 534.946 434.304Z" fill="#128E5A"/>
<path d="M620.274 412.534C618.475 420.234 623.259 427.934 630.959 429.733C638.659 431.532 646.359 426.748 648.158 419.047C649.957 411.347 645.173 403.647 637.473 401.849C629.772 400.05 622.072 404.834 620.274 412.534Z" fill="#128E5A"/>
<path d="M648.16 419.049C648.508 417.56 648.607 416.072 648.489 414.625C645.375 419.816 639.166 422.649 632.955 421.198C626.744 419.748 622.433 414.457 621.941 408.424C621.194 409.668 620.624 411.046 620.276 412.536C618.477 420.236 623.261 427.936 630.961 429.735C638.661 431.533 646.362 426.749 648.16 419.049Z" fill="#1DB776"/>
<path d="M549.681 429.636C543.808 454.779 559.429 479.922 584.572 485.795C609.714 491.668 634.857 476.047 640.73 450.904C646.603 425.762 630.982 400.619 605.839 394.746C580.697 388.873 555.554 404.494 549.681 429.636Z" fill="#1DB776"/>
<path d="M640.739 450.903C641.075 449.464 641.337 448.024 641.535 446.588C633.977 469.226 610.277 482.795 586.574 477.258C562.871 471.721 547.634 449.058 550.887 425.415C550.428 426.789 550.026 428.196 549.69 429.636C543.817 454.778 559.438 479.921 584.58 485.794C609.723 491.667 634.866 476.046 640.739 450.903Z" fill="#128E5A"/>
<path d="M597.529 458.818C596.336 463.925 599.509 469.032 604.616 470.225C609.723 471.418 614.83 468.245 616.023 463.138C617.216 458.031 614.043 452.923 608.936 451.73C603.829 450.537 598.722 453.71 597.529 458.818Z" fill="#128E5A"/>
<path d="M616.033 463.136C616.393 461.596 616.353 460.057 615.985 458.624C613.752 461.222 610.187 462.521 606.62 461.688C603.053 460.854 600.431 458.111 599.58 454.792C598.616 455.914 597.898 457.276 597.538 458.816C596.346 463.923 599.519 469.031 604.626 470.224C609.733 471.417 614.84 468.244 616.033 463.136Z" fill="white"/>
<path d="M574.964 418.38C574.157 421.837 576.305 425.294 579.762 426.102C583.219 426.91 586.677 424.762 587.484 421.304C588.292 417.847 586.144 414.39 582.686 413.582C579.229 412.774 575.772 414.922 574.964 418.38Z" fill="white"/>
<path d="M545.671 461.36C544.57 466.075 547.499 470.79 552.214 471.891C556.929 472.992 561.644 470.063 562.745 465.348C563.846 460.633 560.917 455.918 556.202 454.817C551.487 453.716 546.772 456.645 545.671 461.36Z" fill="#1DB776"/>
<path d="M562.749 465.347C563.112 463.791 563.034 462.236 562.601 460.811C560.529 463.017 557.371 464.091 554.212 463.353C551.052 462.615 548.697 460.253 547.817 457.357C546.796 458.443 546.038 459.803 545.674 461.358C544.573 466.073 547.503 470.788 552.217 471.89C556.932 472.991 561.648 470.062 562.749 465.347Z" fill="#128E5A"/>
<path d="M602.244 410.146C599.887 409.596 598.422 407.239 598.973 404.882L601.24 395.175C602.394 390.234 602.402 385.087 601.207 380.156C600.85 378.686 600.87 377.097 601.35 375.525C602.621 371.36 606.863 368.733 611.158 369.452C616.201 370.295 619.41 375.194 618.265 380.095C617.955 381.422 617.358 382.608 616.556 383.601C613.336 387.59 610.941 392.179 609.775 397.17L607.508 406.876C606.958 409.232 604.601 410.697 602.244 410.146Z" fill="#128E5A"/>
<path d="M625.332 447.307C624.781 449.664 626.246 452.021 628.603 452.572L638.31 454.839C643.251 455.994 647.868 458.267 651.76 461.523C652.92 462.494 654.353 463.18 655.975 463.446C660.272 464.152 664.506 461.512 665.765 457.343C667.242 452.448 664.272 447.401 659.372 446.257C658.044 445.947 656.717 445.956 655.471 446.235C650.468 447.356 645.294 447.469 640.302 446.303L630.597 444.036C628.24 443.486 625.883 444.95 625.332 447.307Z" fill="#1DB776"/>
<path d="M655.973 463.444C660.271 464.15 664.505 461.51 665.764 457.341C666.289 455.6 666.25 453.84 665.763 452.243C663.814 454.308 660.906 455.391 657.967 454.908C656.346 454.642 654.912 453.956 653.752 452.985C649.861 449.729 645.243 447.456 640.302 446.301L630.596 444.034C628.239 443.484 625.881 444.948 625.331 447.305C624.78 449.663 626.244 452.02 628.602 452.57L638.308 454.837C643.25 455.992 647.867 458.265 651.758 461.521C652.919 462.492 654.352 463.178 655.973 463.444Z" fill="#128E5A"/>
<path d="M589.221 504.437C589.53 503.11 589.521 501.784 589.242 500.538C589.193 500.318 589.148 500.096 589.102 499.875C586.911 502.23 583.486 503.308 580.132 502.295C577.264 501.429 575.121 499.154 574.292 496.42C574.182 496.556 574.074 496.694 573.961 496.828C572.991 497.988 572.305 499.42 572.039 501.041C571.334 505.337 573.972 509.569 578.14 510.827C583.032 512.304 588.076 509.335 589.221 504.437Z" fill="#128E5A"/>
<defs>
<linearGradient id="paint0_linear" x1="124.059" y1="627.687" x2="173.076" y2="763.827" gradientUnits="userSpaceOnUse">
<stop stop-color="#FFD8D8"/>
<stop offset="1" stop-color="#FFF8F8"/>
</linearGradient>
<linearGradient id="paint1_linear" x1="770.471" y1="282.693" x2="333.853" y2="45.3448" gradientUnits="userSpaceOnUse">
<stop stop-color="#FFF8F8"/>
<stop offset="1" stop-color="#FFCFCF"/>
</linearGradient>
<linearGradient id="paint2_linear" x1="751.658" y1="219.027" x2="593.938" y2="163.505" gradientUnits="userSpaceOnUse">
<stop stop-color="#FFD7D7"/>
<stop offset="1" stop-color="#FFF9F9"/>
</linearGradient>
<linearGradient id="paint3_linear" x1="745.235" y1="653.48" x2="105.067" y2="336.53" gradientUnits="userSpaceOnUse">
<stop stop-color="#FFCFCF"/>
<stop offset="1" stop-color="#FFF8F8"/>
</linearGradient>
</defs>
</svg>
