<svg width="187" height="188" viewBox="0 0 187 188" fill="none" xmlns="http://www.w3.org/2000/svg">
<path d="M140.69 55.8183C138.947 57.0011 138.446 59.4046 139.361 61.5488C136.873 63.6684 133.907 65.9217 130.44 68.1032C128.51 69.3131 126.616 70.3827 124.802 71.3231C124.577 70.9942 124.347 70.6653 124.111 70.3396C122.965 68.7552 121.726 67.2799 120.415 65.9071C120.776 64.6483 121.322 63.2051 122.161 61.6995C123.606 59.0832 125.392 57.2339 126.9 55.9833C128.983 57.2306 131.527 56.9932 132.902 55.3014C134.453 53.3947 133.943 50.3678 131.755 48.5455C129.57 46.7195 126.545 46.7784 124.994 48.6852C123.584 50.4233 123.882 53.0909 125.601 54.9329C124.801 56.7412 123.374 59.1061 120.871 61.0145C119.639 61.9574 118.411 62.5816 117.356 63.0045C115.078 61.0492 112.627 59.3701 110.042 57.9842C110.404 56.1722 110.921 54.1546 111.688 52.0137C112.794 48.9093 114.135 46.2914 115.438 44.1656C117.709 44.7457 119.997 43.8299 120.852 41.8583C121.835 39.5963 120.542 36.7954 117.974 35.6039C115.406 34.4128 112.522 35.2888 111.541 37.5536C110.688 39.5186 111.549 41.8934 113.476 43.2592C112.797 45.693 111.802 48.4639 110.307 51.3747C109.294 53.3573 108.208 55.0938 107.158 56.5761C104.604 55.442 101.954 54.5777 99.2521 53.9945C98.2777 51.4335 97.4379 48.2274 97.2783 44.5189C97.1368 41.0458 97.6217 38.0853 98.2162 35.8209C100.575 35.6811 102.492 34.0517 102.67 31.8611C102.877 29.376 100.784 27.1124 97.9878 26.8097C95.1979 26.4967 92.7679 28.2582 92.566 30.7404C92.3881 32.931 93.9879 34.9522 96.2915 35.6055C96.5065 37.8999 96.5154 40.9318 95.7842 44.3544C94.9774 48.131 93.5531 51.0729 92.3143 53.1056C89.1399 52.9776 85.9581 53.2215 82.8307 53.856C82.4665 52.6358 82.2114 51.3274 82.1091 49.9342C82.0332 48.826 82.0601 47.7834 82.1529 46.8224C84.4873 46.2761 86.1073 44.2833 85.8742 42.0595C85.622 39.5703 83.1552 37.7262 80.3688 37.9436C77.582 38.1605 75.5315 40.351 75.786 42.8434C76.0135 45.0308 77.9478 46.7214 80.3037 46.9503C80.5934 47.9815 80.8414 49.0889 81.0286 50.2651C81.2506 51.6137 81.3755 52.9139 81.419 54.1685C81.1074 54.2439 80.8029 54.3198 80.4987 54.4055C76.9143 55.3541 73.4313 56.8347 70.1472 58.8579C68.6089 57.8104 67.0276 56.5601 65.4662 55.0603C62.2838 51.9972 60.1849 48.8462 58.8148 46.3305C60.3867 44.6439 60.6875 42.1741 59.4058 40.4016C57.9287 38.3591 54.9119 38.019 52.666 39.6431C50.4155 41.2706 49.7889 44.2454 51.2659 46.2879C52.5696 48.0907 55.0741 48.5631 57.1893 47.5323C59.2387 49.5063 61.8033 52.4889 63.8398 56.6237C64.7305 58.4479 65.3858 60.2236 65.8718 61.9085C63.0069 64.2438 60.5636 66.9137 58.5413 69.8313C57.7187 69.4868 56.9102 69.0854 56.0539 68.5415C54.3612 67.462 53.0776 66.2317 52.12 65.1273C53.1961 62.9174 52.6729 60.2923 50.7943 58.9941C48.7264 57.5679 45.8021 58.2921 44.2613 60.6142C42.725 62.9331 43.1529 65.9709 45.2257 67.3943C47.0125 68.6231 49.431 68.2505 51.048 66.6357C52.4002 67.378 53.8545 68.3094 55.3237 69.5001C56.1079 70.1259 56.8207 70.7772 57.4851 71.4378C55.747 74.223 54.3839 77.2017 53.3931 80.3035C51.6761 80.2797 49.8353 80.1422 47.8884 79.8292C43.407 79.1073 39.7439 77.6921 37.0595 76.3784C37.2831 74.0311 36.0196 71.8157 33.9388 71.1647C31.556 70.4209 29.0051 72.0055 28.2405 74.7034C27.4808 77.3986 28.793 80.1878 31.1709 80.9344C33.281 81.5877 35.5108 80.4286 36.532 78.2861C39.2699 78.6132 43.1347 79.457 47.27 81.6974C49.1637 82.7203 50.7946 83.8672 52.1967 85.0225C52.0892 85.5905 51.9846 86.1721 51.8983 86.7503C51.478 89.6568 51.3628 92.6221 51.5731 95.5885C50.6642 95.9082 49.6944 96.201 48.6628 96.4468C45.3082 97.2448 42.3218 97.329 40.0113 97.1916C39.293 94.8988 37.2489 93.343 35.0905 93.588C32.6425 93.8625 30.9684 96.3635 31.3545 99.1715C31.7354 101.982 34.0346 104.034 36.4913 103.752C38.6445 103.51 40.1967 101.547 40.2797 99.1681C42.4929 98.5212 45.4153 97.9376 48.872 97.9496C49.9043 97.9534 50.8878 98.0138 51.8325 98.1066C52.4417 102.723 53.8436 107.299 56.0671 111.626C54.618 112.88 52.9956 114.153 51.1622 115.392C48.5448 117.162 46.0124 118.524 43.7032 119.583C42.1841 117.578 39.6258 116.83 37.6887 117.935C35.5559 119.152 34.9864 122.139 36.4127 124.608C37.8436 127.074 40.727 128.09 42.8546 126.875C44.7523 125.792 45.4044 123.311 44.5251 121.035C46.6251 119.581 49.0858 118.092 51.9262 116.716C53.896 115.762 55.7912 114.99 57.6 114.348C58.1675 115.285 58.7828 116.203 59.4373 117.108C60.9916 119.258 62.7067 121.218 64.5615 122.98C63.6895 125.387 62.2863 128.415 59.9495 131.519C57.9021 134.239 55.7295 136.232 53.8807 137.66C51.8897 136.34 49.3843 136.43 47.9191 138.007C46.2526 139.801 46.571 142.85 48.6385 144.811C50.7064 146.772 53.7379 146.904 55.4044 145.109C56.85 143.553 56.8012 141.068 55.4259 139.157C56.895 137.108 58.7421 134.847 61.0559 132.571C63.7128 129.958 66.347 127.953 68.6795 126.42C71.6161 128.579 74.7968 130.302 78.1108 131.588C77.8061 132.725 77.414 133.912 76.885 135.139C75.8795 137.485 74.6561 139.377 73.486 140.873C71.3006 139.954 68.8739 140.535 67.7438 142.374C66.4609 144.469 67.3538 147.415 69.746 148.945C71.2485 149.905 72.9879 150.084 74.3916 149.56C75.2209 149.254 75.9346 148.703 76.4136 147.922C76.5518 147.693 76.6706 147.446 76.7568 147.193C77.4379 145.306 76.6371 142.995 74.7606 141.595C75.622 139.843 76.7244 137.927 78.1649 135.963C79.0956 134.699 80.0429 133.582 80.9748 132.587C82.9154 133.187 84.897 133.634 86.887 133.93C87.0745 133.96 87.2665 133.987 87.4486 134.009C87.9695 136.392 88.3732 139.454 88.1953 142.983C88.0197 146.438 87.3462 149.348 86.6208 151.584C84.27 151.572 82.2684 153.057 81.94 155.211C81.5622 157.67 83.5043 160.069 86.2778 160.569C89.0394 161.072 91.5945 159.484 91.9675 157.028C92.2963 154.893 90.8738 152.802 88.6794 151.965C88.7156 149.474 88.9702 146.51 89.6773 143.255C90.4431 139.756 91.5402 136.782 92.6373 134.381C96.3967 134.401 100.167 133.891 103.82 132.836C104.518 134.041 105.199 135.394 105.797 136.899C107.103 140.177 107.667 143.154 107.901 145.475C105.759 146.44 104.55 148.647 105.132 150.78C105.796 153.198 108.521 154.607 111.221 153.926C113.916 153.248 115.566 150.732 114.908 148.303C114.332 146.198 112.201 144.856 109.877 144.996C108.901 142.7 107.927 139.854 107.242 136.536C106.912 134.915 106.693 133.379 106.558 131.931C109.244 130.935 111.847 129.632 114.327 127.998C116.116 129.65 117.999 131.584 119.863 133.838C122.639 137.189 124.706 140.438 126.239 143.246C124.677 144.929 124.381 147.395 125.66 149.163C127.137 151.206 130.153 151.545 132.408 149.915C134.654 148.291 135.277 145.32 133.8 143.277C132.526 141.516 130.102 141.021 128.019 141.963C125.814 139.554 123.403 136.564 121.066 132.968C119.49 130.541 118.186 128.193 117.1 126.003C119.542 124.087 121.692 121.928 123.541 119.583C123.995 119.791 124.456 120.017 124.919 120.256C127.983 121.827 130.349 123.666 132.066 125.266C131.146 127.405 131.679 129.882 133.477 131.135C135.53 132.579 138.462 131.875 140.021 129.569C141.574 127.263 141.171 124.221 139.113 122.78C137.289 121.5 134.775 121.912 133.143 123.63C131.169 122.727 128.491 121.144 126.002 118.439C125.692 118.105 125.4 117.768 125.127 117.428C127.05 114.632 128.581 111.608 129.713 108.443C132.036 108.608 134.606 108.951 137.363 109.572C141.604 110.525 145.183 111.901 148.007 113.227C147.8 115.558 149.061 117.751 151.127 118.401C153.514 119.14 156.059 117.558 156.824 114.86C157.585 112.166 156.274 109.379 153.894 108.63C151.835 107.989 149.648 109.084 148.604 111.137C145.469 110.567 141.781 109.643 137.776 108.126C135.187 107.146 132.851 106.066 130.777 104.966C131.138 103.563 131.423 102.142 131.638 100.7C131.98 98.3448 132.123 95.9525 132.049 93.5568C134.476 92.6804 137.406 91.8487 140.782 91.3389C144.036 90.8415 146.984 90.7509 149.479 90.8477C150.186 93.0962 152.176 94.6436 154.306 94.4361C156.764 94.204 158.48 91.7329 158.146 88.9206C157.81 86.1049 155.542 84.0193 153.084 84.2513C150.937 84.4556 149.348 86.3755 149.215 88.7342C146.933 89.3243 144.011 89.8313 140.603 89.8304C137.066 89.8307 134.007 89.2987 131.613 88.6633C131.273 86.3879 130.74 84.1223 130.011 81.8902C130.997 81.2287 132.082 80.5786 133.252 79.9802C136.274 78.4357 139.11 77.5887 141.422 77.1159C142.671 79.1585 145.013 80.1617 147.018 79.389C149.31 78.5068 150.311 75.6485 149.254 73.0027C148.193 70.3597 145.481 68.9312 143.184 69.8166C141.172 70.5888 140.154 72.8971 140.656 75.2456C138.697 76.4251 136.022 77.7236 132.686 78.5661C131.421 78.881 130.197 79.0996 129.04 79.2386C128.239 77.2609 127.28 75.3233 126.149 73.444C127.722 72.0943 129.437 70.7199 131.308 69.3611C134.604 66.9626 137.784 65.0346 140.681 63.488C142.346 65.1212 144.764 65.5322 146.505 64.3564C148.534 62.9767 148.879 59.9469 147.267 57.5939C145.66 55.2377 142.715 54.4423 140.69 55.8183Z" fill="#FFE1E1"/>
</svg>
